<?xml version="1.0" encoding="UTF-8"?><svg id="Layer_2" xmlns="http://www.w3.org/2000/svg" viewBox="0 0 396.04 35.16"><defs><style>.cls-1{fill:#fff;stroke-width:0px;}</style></defs><g id="Layer_1-2"><g id="Group_1-2"><path id="Path_5" class="cls-1" d="m10.15,35.09c-4.96.6-9.48-2.93-10.09-7.89-.06-.47-.08-.95-.06-1.42V9.37C-.17,4.37,3.75.18,8.75,0c.47-.02.94,0,1.4.06h57.62v8.76H12.63c-.84-.06-1.57.56-1.63,1.4v14.5c-.05.84.6,1.55,1.43,1.6h0c.07,0,.13,0,.2,0h55.13v8.75H10.15Z"/><path id="Path_6" class="cls-1" d="m90.06,35.09c-6.8,0-10.24-4.06-10.24-9.31V.07h11.1v24.66c-.05.84.59,1.56,1.43,1.61.08,0,.16,0,.23,0h43.77c.84.08,1.58-.54,1.66-1.37,0,0,0,0,0,0,0-.08,0-.16,0-.23V.07h11.1v25.71c0,5.25-3.44,9.3-10.24,9.3h-48.8Z"/><path id="Path_7" class="cls-1" d="m173.7,24.94h47.99c6.79,0,10.21-3.72,10.21-8.97v-6.93c0-5.26-3.43-8.97-10.21-8.97h-59.06v35.03h11.07v-10.16Zm0-8.41v-8.05h46.19c.08,0,.16,0,.24,0,.84.05,1.47.78,1.42,1.61v4.83c0,.08,0,.16,0,.24-.08.84-.82,1.45-1.66,1.37,0,0,0,0,0,0h-46.19Z"/><path id="Path_8" class="cls-1" d="m305.14,35.09h12.59l-8.01-12.05c3.28-1.29,5.36-4.54,5.15-8.06v-5.95c0-5.26-3.43-8.97-10.23-8.97h-59.18v35.02h11.09v-10.16h42.08l6.51,10.16Zm-48.59-18.56v-8.05h46.3c.08,0,.16,0,.23,0,.84.05,1.48.77,1.43,1.61v4.83c0,.08,0,.16,0,.23-.08.84-.82,1.45-1.66,1.38h-46.3Z"/><path id="Path_9" class="cls-1" d="m384.92,35.09h11.11V.06h-59.02c-6.8,0-10.24,4.06-10.24,9.3v25.72h11.1v-10.16h47.05v10.16Zm-47.05-18.56v-6.44c0-.08,0-.16,0-.23.08-.84.82-1.45,1.66-1.38h45.4v8.05h-47.06Z"/></g></g></svg>