<?xml version="1.0" encoding="UTF-8"?><svg id="Layer_2" xmlns="http://www.w3.org/2000/svg" viewBox="0 0 303.93 233.55"><defs><style>.cls-1{fill:#f8f8f8;stroke-width:0px;}</style></defs><g id="MARCA_POSITIVO_P2718"><path class="cls-1" d="m240.51,48.15c-16.44,8.05-32.88,16.09-49.31,24.13h0c10.02,3.83,20.04,7.68,30.05,11.54,6.2,2.39,13.55,5.39,16.26,12.72,2.78,7.52-1.31,14.23-4.93,19.9-5.47,8.57-10.94,17.13-16.41,25.7-19.47,30.48-38.94,60.97-58.48,91.41-.03-9.4-.06-18.8-.07-28.2v-.02c7.47-23.5,14.76-47.05,21.8-70.69,2-6.71,3.97-13.43,5.92-20.15,1.17-4.05.42-6.48-3.48-8.41-9.96-4.92-19.92-9.83-29.88-14.73-9.96,4.9-19.92,9.81-29.88,14.73-3.9,1.93-4.66,4.36-3.48,8.41,1.95,6.73,3.93,13.44,5.92,20.15,7.03,23.64,14.33,47.19,21.8,70.69v.02c-.02,9.4-.04,18.8-.08,28.2-19.54-30.44-39.01-60.92-58.48-91.41-5.47-8.57-10.94-17.13-16.41-25.7-3.62-5.66-7.71-12.37-4.93-19.9,2.71-7.33,10.06-10.33,16.26-12.72,10.01-3.86,20.03-7.71,30.05-11.55h0c-16.44-8.04-32.88-16.09-49.31-24.13l-.02-.02c5.13,8.59,10.25,17.18,15.37,25.77-8.48,3.25-16.95,6.51-25.42,9.77C35.55,55.79,17.74,27.92,0,0c50.6,17.95,101.15,36.03,151.97,53.38C202.78,36.03,253.33,17.95,303.93,0c-17.74,27.92-35.55,55.79-53.35,83.67-8.47-3.26-16.95-6.52-25.42-9.77,5.12-8.59,10.25-17.18,15.37-25.77"/></g></svg>